<mxfile host="Electron" agent="Mozilla/5.0 (Windows NT 10.0; Win64; x64) AppleWebKit/537.36 (KHTML, like Gecko) draw.io/26.0.4 Chrome/128.0.6613.186 Electron/32.2.5 Safari/537.36" version="26.0.4">
  <diagram name="Page-1" id="19innW4KfGCwP6Qa5PAP">
    <mxGraphModel dx="636" dy="376" grid="1" gridSize="10" guides="1" tooltips="1" connect="1" arrows="1" fold="1" page="1" pageScale="1" pageWidth="1654" pageHeight="1169" math="0" shadow="0">
      <root>
        <mxCell id="0" />
        <mxCell id="1" parent="0" />
        <mxCell id="mB2iXxbuoUZYV2Jj0AO8-1" style="edgeStyle=orthogonalEdgeStyle;rounded=0;orthogonalLoop=1;jettySize=auto;html=1;exitX=1;exitY=0.5;exitDx=0;exitDy=0;entryX=0;entryY=0.5;entryDx=0;entryDy=0;" edge="1" parent="1" source="mB2iXxbuoUZYV2Jj0AO8-2" target="mB2iXxbuoUZYV2Jj0AO8-6">
          <mxGeometry relative="1" as="geometry" />
        </mxCell>
        <mxCell id="mB2iXxbuoUZYV2Jj0AO8-2" value="" style="ellipse;whiteSpace=wrap;html=1;aspect=fixed;" vertex="1" parent="1">
          <mxGeometry x="500" y="280" width="80" height="80" as="geometry" />
        </mxCell>
        <mxCell id="mB2iXxbuoUZYV2Jj0AO8-3" value="Inverse IP" style="text;html=1;align=center;verticalAlign=middle;whiteSpace=wrap;rounded=0;" vertex="1" parent="1">
          <mxGeometry x="510" y="305" width="60" height="30" as="geometry" />
        </mxCell>
        <mxCell id="mB2iXxbuoUZYV2Jj0AO8-11" style="edgeStyle=orthogonalEdgeStyle;rounded=0;orthogonalLoop=1;jettySize=auto;html=1;exitX=1;exitY=0.5;exitDx=0;exitDy=0;entryX=0;entryY=0.5;entryDx=0;entryDy=0;" edge="1" parent="1" source="mB2iXxbuoUZYV2Jj0AO8-5" target="mB2iXxbuoUZYV2Jj0AO8-2">
          <mxGeometry relative="1" as="geometry" />
        </mxCell>
        <mxCell id="mB2iXxbuoUZYV2Jj0AO8-5" value="inv_p_input [63:0] = {rn,ln}" style="text;html=1;align=center;verticalAlign=middle;whiteSpace=wrap;rounded=0;" vertex="1" parent="1">
          <mxGeometry x="290" y="305" width="150" height="30" as="geometry" />
        </mxCell>
        <mxCell id="mB2iXxbuoUZYV2Jj0AO8-6" value="cipher_text [63:0]" style="text;html=1;align=center;verticalAlign=middle;whiteSpace=wrap;rounded=0;" vertex="1" parent="1">
          <mxGeometry x="630" y="305" width="110" height="30" as="geometry" />
        </mxCell>
        <mxCell id="mB2iXxbuoUZYV2Jj0AO8-7" value="" style="shape=curlyBracket;whiteSpace=wrap;html=1;rounded=1;labelPosition=left;verticalLabelPosition=middle;align=right;verticalAlign=middle;size=0.3333333333333333;rotation=-180;" vertex="1" parent="1">
          <mxGeometry x="270" y="290" width="20" height="60" as="geometry" />
        </mxCell>
        <mxCell id="mB2iXxbuoUZYV2Jj0AO8-8" value="ln [31:0]" style="text;html=1;align=center;verticalAlign=middle;whiteSpace=wrap;rounded=0;" vertex="1" parent="1">
          <mxGeometry x="220" y="275" width="50" height="30" as="geometry" />
        </mxCell>
        <mxCell id="mB2iXxbuoUZYV2Jj0AO8-9" value="rn [31:0]" style="text;html=1;align=center;verticalAlign=middle;whiteSpace=wrap;rounded=0;" vertex="1" parent="1">
          <mxGeometry x="220" y="335" width="50" height="30" as="geometry" />
        </mxCell>
      </root>
    </mxGraphModel>
  </diagram>
</mxfile>
